<svg xmlns="http://www.w3.org/2000/svg" viewBox="0 0 400 290"><ellipse cx="204" cy="265" rx="108" ry="9" fill="#DCD5EA"/><path d="m108 43 142-16 47 29v195l-47 16-142-23Z" fill="#302B3F"/><path d="m250 27 47 29v195l-47 16Z" fill="#91899F"/><path d="m121 58 114-14v205l-114-17Z" fill="#E0D9EB"/><path d="m129 67 98-13v183l-98-15Z" fill="#B6AACD"/><path d="m139 79 78-10v96l-78-4Z" fill="#C7BFD4"/><path d="m139 185 78 8v28l-78-12Z" fill="#91899F"/><path d="m260 62 25 15v159l-25 8Z" fill="#746B85"/><g stroke="#A6A0B5" stroke-width="2"><path d="m267 82 12 5m-12 7 12 5m-12 7 12 5m-12 7 12 5m-12 7 12 5m-12 7 12 5m-12 7 12 5m-12 7 12 5m-12 7 12 5m-12 7 12 5m-12 7 12 5m-12 7 12 5"/></g><path d="m108 43 142-16 47 29-142 17Z" fill="#C7BFD4"/><path d="m145 42 82-10 26 15-81 11Z" fill="#91899F"/><path d="M120 244v14m163-7v9" stroke="#302B3F" stroke-width="8"/></svg>
