<svg xmlns="http://www.w3.org/2000/svg" viewBox="0 0 400 290" role="img" aria-label="Illustration d’une carte graphique à deux ventilateurs"><ellipse cx="200" cy="246" rx="140" ry="10" fill="#DCD5EA"/><g transform="rotate(-9 200 145)"><path d="M55 92h285v134H55Z" fill="#91899F"/><rect x="43" y="73" width="303" height="137" rx="12" fill="#3E374C"/><path d="M56 87h274v105H56Z" fill="#2B2636"/><path d="M45 102h302M45 182h302" stroke="#80758F" stroke-width="3"/><g fill="#17151D" stroke="#6E627F" stroke-width="3"><circle cx="125" cy="140" r="48"/><circle cx="263" cy="140" r="48"/></g><g fill="none" stroke="#4E465C" stroke-width="13"><path d="M125 99v82m-41-41h82m-70-29 58 58m-58 0 58-58M263 99v82m-41-41h82m-70-29 58 58m-58 0 58-58"/></g><g fill="#A68AD7"><circle cx="125" cy="140" r="14"/><circle cx="263" cy="140" r="14"/></g><path d="M93 210v10h124v-10" fill="#B99C63"/><path d="M347 74h10v153h-14" fill="none" stroke="#9D93AF" stroke-width="6"/></g></svg>