<svg xmlns="http://www.w3.org/2000/svg" viewBox="0 0 400 290"><ellipse cx="202" cy="238" rx="142" ry="9" fill="#DCD5EA"/><g transform="rotate(-12 200 145)"><path d="M48 102h294v83H48Z" fill="#4E465C"/><path d="M44 94h301v78H44Z" fill="#302B3F"/><circle cx="55" cy="133" r="9" fill="#DCD5EA"/><rect x="80" y="108" width="57" height="50" rx="3" fill="#17151D"/><rect x="149" y="108" width="57" height="50" rx="3" fill="#17151D"/><rect x="218" y="108" width="91" height="50" rx="3" fill="#C7BFD4"/><path d="M230 119h62m-62 10h42m-42 10h54m-54 10h29" stroke="#746B85" stroke-width="3"/><path d="M331 95h20v31h-8v9h8v36h-20Z" fill="#B99C63"/><g stroke="#302B3F" stroke-width="2"><path d="M336 97v28m7-28v28m-7 12v32m7-32v32"/></g><path d="M79 165h12m7 0h12m35 0h12m7 0h12" stroke="#A68AD7" stroke-width="2"/></g></svg>
